<svg width="22" height="22" viewBox="0 0 22 22" fill="none" xmlns="http://www.w3.org/2000/svg">
<path d="M12.0833 15.3333H5.58333C5.29601 15.3333 5.02046 15.4475 4.8173 15.6506C4.61414 15.8538 4.5 16.1293 4.5 16.4167C4.5 16.704 4.61414 16.9795 4.8173 17.1827C5.02046 17.3859 5.29601 17.5 5.58333 17.5H12.0833C12.3706 17.5 12.6462 17.3859 12.8494 17.1827C13.0525 16.9795 13.1667 16.704 13.1667 16.4167C13.1667 16.1293 13.0525 15.8538 12.8494 15.6506C12.6462 15.4475 12.3706 15.3333 12.0833 15.3333ZM7.75 8.83333H9.91667C10.204 8.83333 10.4795 8.71919 10.6827 8.51602C10.8859 8.31286 11 8.03731 11 7.74999C11 7.46268 10.8859 7.18713 10.6827 6.98396C10.4795 6.7808 10.204 6.66666 9.91667 6.66666H7.75C7.46268 6.66666 7.18713 6.7808 6.98397 6.98396C6.7808 7.18713 6.66667 7.46268 6.66667 7.74999C6.66667 8.03731 6.7808 8.31286 6.98397 8.51602C7.18713 8.71919 7.46268 8.83333 7.75 8.83333ZM20.75 11H17.5V1.24999C17.5008 1.0591 17.4511 0.871393 17.3559 0.705884C17.2608 0.540375 17.1237 0.402939 16.9583 0.307493C16.7936 0.21241 16.6068 0.162354 16.4167 0.162354C16.2265 0.162354 16.0397 0.21241 15.875 0.307493L12.625 2.17083L9.375 0.307493C9.21031 0.21241 9.0235 0.162354 8.83333 0.162354C8.64317 0.162354 8.45635 0.21241 8.29167 0.307493L5.04167 2.17083L1.79167 0.307493C1.62698 0.21241 1.44016 0.162354 1.25 0.162354C1.05983 0.162354 0.873019 0.21241 0.708332 0.307493C0.54301 0.402939 0.405845 0.540375 0.310725 0.705884C0.215605 0.871393 0.165907 1.0591 0.166665 1.24999V18.5833C0.166665 19.4453 0.509075 20.2719 1.11857 20.8814C1.72806 21.4909 2.55471 21.8333 3.41667 21.8333H18.5833C19.4453 21.8333 20.2719 21.4909 20.8814 20.8814C21.4909 20.2719 21.8333 19.4453 21.8333 18.5833V12.0833C21.8333 11.796 21.7192 11.5205 21.516 11.3173C21.3129 11.1141 21.0373 11 20.75 11ZM3.41667 19.6667C3.12935 19.6667 2.8538 19.5525 2.65063 19.3494C2.44747 19.1462 2.33333 18.8706 2.33333 18.5833V3.12416L4.5 4.35916C4.6672 4.44649 4.85303 4.4921 5.04167 4.4921C5.2303 4.4921 5.41613 4.44649 5.58333 4.35916L8.83333 2.49583L12.0833 4.35916C12.2505 4.44649 12.4364 4.4921 12.625 4.4921C12.8136 4.4921 12.9995 4.44649 13.1667 4.35916L15.3333 3.12416V18.5833C15.3363 18.9529 15.4022 19.3193 15.5283 19.6667H3.41667ZM19.6667 18.5833C19.6667 18.8706 19.5525 19.1462 19.3494 19.3494C19.1462 19.5525 18.8706 19.6667 18.5833 19.6667C18.296 19.6667 18.0205 19.5525 17.8173 19.3494C17.6141 19.1462 17.5 18.8706 17.5 18.5833V13.1667H19.6667V18.5833ZM12.0833 11H5.58333C5.29601 11 5.02046 11.1141 4.8173 11.3173C4.61414 11.5205 4.5 11.796 4.5 12.0833C4.5 12.3706 4.61414 12.6462 4.8173 12.8494C5.02046 13.0525 5.29601 13.1667 5.58333 13.1667H12.0833C12.3706 13.1667 12.6462 13.0525 12.8494 12.8494C13.0525 12.6462 13.1667 12.3706 13.1667 12.0833C13.1667 11.796 13.0525 11.5205 12.8494 11.3173C12.6462 11.1141 12.3706 11 12.0833 11Z" fill="#4F4F4D"/>
</svg>
